<svg id="visual" viewBox="0 0 540 960" width="540" height="960" xmlns="http://www.w3.org/2000/svg" xmlns:xlink="http://www.w3.org/1999/xlink" version="1.1"><rect x="0" y="0" width="540" height="960" fill="#d2ebff"></rect><defs><linearGradient id="grad1_0" x1="0%" y1="100%" x2="100%" y2="0%"><stop offset="30%" stop-color="#d2ebff" stop-opacity="1"></stop><stop offset="70%" stop-color="#d2ebff" stop-opacity="1"></stop></linearGradient></defs><defs><linearGradient id="grad2_0" x1="0%" y1="100%" x2="100%" y2="0%"><stop offset="30%" stop-color="#d2ebff" stop-opacity="1"></stop><stop offset="70%" stop-color="#d2ebff" stop-opacity="1"></stop></linearGradient></defs><g transform="translate(540, 960)"><path d="M-324 0C-303.3 -34.9 -282.6 -69.9 -270.7 -112.1C-258.8 -154.4 -255.6 -203.9 -229.1 -229.1C-202.6 -254.3 -152.7 -255.2 -110.6 -267C-68.5 -278.8 -34.3 -301.4 0 -324L0 0Z" fill="#fff5e7"></path></g><g transform="translate(0, 0)"><path d="M324 0C319.2 41.2 314.5 82.3 299.3 124C284.2 165.7 258.6 207.8 221.3 221.3C184 234.8 134.9 219.6 96.1 231.9C57.2 244.2 28.6 284.1 0 324L0 0Z" fill="#fff5e7"></path></g></svg>