<svg id="visual" viewBox="0 0 900 600" width="900" height="600" xmlns="http://www.w3.org/2000/svg" xmlns:xlink="http://www.w3.org/1999/xlink" version="1.1"><rect x="0" y="0" width="900" height="600" fill="#ffd79c"></rect><defs><linearGradient id="grad1_0" x1="33.3%" y1="100%" x2="100%" y2="0%"><stop offset="20%" stop-color="#ffd79c" stop-opacity="1"></stop><stop offset="80%" stop-color="#ffd79c" stop-opacity="1"></stop></linearGradient></defs><defs><linearGradient id="grad2_0" x1="0%" y1="100%" x2="66.7%" y2="0%"><stop offset="20%" stop-color="#ffd79c" stop-opacity="1"></stop><stop offset="80%" stop-color="#ffd79c" stop-opacity="1"></stop></linearGradient></defs><g transform="translate(900, 600)"><path d="M-324.5 0C-320.7 -42.8 -316.9 -85.7 -299.8 -124.2C-282.7 -162.7 -252.5 -196.8 -218.5 -218.5C-184.5 -240.2 -146.9 -249.6 -109.8 -265.2C-72.8 -280.8 -36.4 -302.6 0 -324.5L0 0Z" fill="#fff5e7"></path></g><g transform="translate(0, 0)"><path d="M324.5 0C287.5 28.9 250.6 57.8 240.2 99.5C229.9 141.2 246.1 195.8 229.5 229.5C212.8 263.1 163.1 275.9 119.4 288.3C75.7 300.6 37.8 312.6 0 324.5L0 0Z" fill="#fff5e7"></path></g></svg>