<svg id="visual" viewBox="0 0 900 450" width="900" height="450" xmlns="http://www.w3.org/2000/svg" xmlns:xlink="http://www.w3.org/1999/xlink" version="1.1"><rect x="0" y="0" width="900" height="450" fill="#ffedd2"></rect><defs><linearGradient id="grad1_0" x1="50%" y1="100%" x2="100%" y2="0%"><stop offset="10%" stop-color="#ffedd2" stop-opacity="1"></stop><stop offset="90%" stop-color="#ffedd2" stop-opacity="1"></stop></linearGradient></defs><defs><linearGradient id="grad2_0" x1="0%" y1="100%" x2="50%" y2="0%"><stop offset="10%" stop-color="#ffedd2" stop-opacity="1"></stop><stop offset="90%" stop-color="#ffedd2" stop-opacity="1"></stop></linearGradient></defs><g transform="translate(900, 450)"><path d="M-270 0C-261.3 -32.1 -252.6 -64.1 -242.1 -100.3C-231.5 -136.4 -219.2 -176.7 -190.9 -190.9C-162.6 -205.2 -118.3 -193.5 -83.8 -202.3C-49.3 -211.2 -24.7 -240.6 0 -270L0 0Z" fill="#ffffff"></path></g><g transform="translate(0, 0)"><path d="M270 0C254.4 30.2 238.8 60.5 228.2 94.5C217.6 128.6 212.1 166.4 190.9 190.9C169.7 215.4 132.8 226.5 98.3 237.4C63.9 248.4 32 259.2 0 270L0 0Z" fill="#ffffff"></path></g></svg>