<svg id="visual" viewBox="0 0 900 450" width="900" height="450" xmlns="http://www.w3.org/2000/svg" xmlns:xlink="http://www.w3.org/1999/xlink" version="1.1"><rect x="0" y="0" width="900" height="450" fill="#ffe9c8"></rect><defs><linearGradient id="grad1_0" x1="50%" y1="0%" x2="100%" y2="100%"><stop offset="10%" stop-color="#ffe9c8" stop-opacity="1"></stop><stop offset="90%" stop-color="#ffe9c8" stop-opacity="1"></stop></linearGradient></defs><defs><linearGradient id="grad2_0" x1="0%" y1="0%" x2="50%" y2="100%"><stop offset="10%" stop-color="#ffe9c8" stop-opacity="1"></stop><stop offset="90%" stop-color="#ffe9c8" stop-opacity="1"></stop></linearGradient></defs><g transform="translate(900, 0)"><path d="M0 270C-31.9 257.3 -63.8 244.5 -95.7 231C-127.5 217.4 -159.2 203.1 -178.2 178.2C-197.1 153.3 -203.3 117.9 -208.8 86.5C-214.3 55 -219.1 27.5 -224 0L0 0Z" fill="#ffffff"></path></g><g transform="translate(0, 450)"><path d="M0 -254C31.8 -249.1 63.6 -244.1 97.6 -235.6C131.6 -227.1 167.8 -214.9 190.9 -190.9C214 -166.9 224 -131 234.7 -97.2C245.3 -63.4 256.7 -31.7 268 0L0 0Z" fill="#ffffff"></path></g></svg>