<svg id="visual" viewBox="0 0 900 450" width="900" height="450" xmlns="http://www.w3.org/2000/svg" xmlns:xlink="http://www.w3.org/1999/xlink" version="1.1"><rect x="0" y="0" width="900" height="450" fill="#ffffff"></rect><path d="M0 134L21.5 125.2C43 116.3 86 98.7 128.8 86.2C171.7 73.7 214.3 66.3 257.2 80.7C300 95 343 131 385.8 145.8C428.7 160.7 471.3 154.3 514.2 145.8C557 137.3 600 126.7 642.8 127.8C685.7 129 728.3 142 771.2 144.2C814 146.3 857 137.7 878.5 133.3L900 129L900 0L878.5 0C857 0 814 0 771.2 0C728.3 0 685.7 0 642.8 0C600 0 557 0 514.2 0C471.3 0 428.7 0 385.8 0C343 0 300 0 257.2 0C214.3 0 171.7 0 128.8 0C86 0 43 0 21.5 0L0 0Z" fill="#ffba54" stroke-linecap="round" stroke-linejoin="miter"></path></svg>